<?xml version="1.0" encoding="UTF-8" standalone="no"?>
<!DOCTYPE svg PUBLIC "-//W3C//DTD SVG 1.1//EN"
 "http://www.w3.org/Graphics/SVG/1.1/DTD/svg11.dtd">
<!-- Generated by graphviz version 2.40.1 (0)
 -->
<!-- Pages: 1 -->
<svg
 viewBox="0.00 0.00 415.00 958.66" xmlns="http://www.w3.org/2000/svg" xmlns:xlink="http://www.w3.org/1999/xlink">
<g id="graph0" class="graph" transform="scale(1 1) rotate(0) translate(4 954.6641)">
<polygon fill="#ffffff" stroke="transparent" points="-4,4 -4,-954.6641 411,-954.6641 411,4 -4,4"/>
<g id="cluster_jp_top" class="cluster">
<title>cluster_jp</title>
<polygon fill="none" stroke="#000000" stroke-width=".5" points="128,-337.3371 128,-624.5006 399,-624.5006 399,-337.3371 128,-337.3371"/>
<text text-anchor="start" x="140" y="-365.7371" font-family="Times,serif" font-size="12.00" fill="#000000">jp</text>
<text text-anchor="start" x="140" y="-348.3371" font-family="Times,serif" font-size="10.00" fill="#000000">(2019&#45;11&#45;29 09:00:01 JST)</text>
</g>
<g id="cluster_._top" class="cluster">
<title>cluster_.</title>
<polygon fill="none" stroke="#000000" stroke-width=".5" points="189,-647.5006 189,-942.6641 349,-942.6641 349,-647.5006 189,-647.5006"/>
<text text-anchor="start" x="201" y="-675.9006" font-family="Times,serif" font-size="12.00" fill="#000000">.</text>
<text text-anchor="start" x="201" y="-658.5006" font-family="Times,serif" font-size="10.00" fill="#000000">(2019&#45;11&#45;29 09:00:01 JST)</text>
</g>
<g id="cluster_ed25519.jp_top" class="cluster">
<title>cluster_ed25519.jp</title>
<polygon fill="none" stroke="#000000" stroke-width=".5" points="8,-8 8,-314.3371 351,-314.3371 351,-8 8,-8"/>
<text text-anchor="start" x="20" y="-36.4" font-family="Times,serif" font-size="12.00" fill="#000000">ed25519.jp</text>
<text text-anchor="start" x="20" y="-19" font-family="Times,serif" font-size="10.00" fill="#000000">(2019&#45;11&#45;29 09:00:01 JST)</text>
</g>
<!-- cluster_jp_top -->
<!-- cluster_._bottom -->
<!-- cluster_jp_top&#45;&gt;cluster_._bottom -->
<g id="del&#45;jp|." class="edge">
<title>cluster_jp_top&#45;&gt;cluster_._bottom</title>
<path fill="none" stroke="#0a879a" stroke-width="5" d="M219.1086,-625.5199C215.9463,-631.7738 212.2472,-639.8887 210,-647.5006"/>
<polygon fill="#0a879a" stroke="#0a879a" stroke-width="5" points="216.688,-634.9 220.0047,-624.5006 210.1161,-629.1227 216.688,-634.9"/>
</g>
<!-- cluster_jp_bottom -->
<!-- DNSKEY&#45;2|jp|8|19311 -->
<g id="DNSKEY&#45;2|jp|8|19311" class="node">
<title>DNSKEY&#45;2|jp|8|19311</title>
<ellipse fill="#ffffff" stroke="#0a879a" stroke-width="1.5" cx="195" cy="-484.0478" rx="59.2941" ry="28.0702"/>
<text text-anchor="start" x="169" y="-491.4478" font-family="Helvetica,sans-Serif" font-size="12.00" fill="#000000">DNSKEY</text>
<text text-anchor="start" x="161" y="-481.0478" font-family="Times,serif" font-size="10.00" fill="#000000">alg=8, id=19311</text>
<text text-anchor="start" x="175.5" y="-471.0478" font-family="Times,serif" font-size="10.00" fill="#000000">1024 bits</text>
</g>
<!-- DNSKEY&#45;4|jp|8|39595 -->
<g id="DNSKEY&#45;4|jp|8|39595" class="node">
<title>DNSKEY&#45;4|jp|8|39595</title>
<ellipse fill="#d3d3d3" stroke="#0a879a" stroke-width="1.5" cx="241" cy="-562.6163" rx="59.2941" ry="28.0702"/>
<text text-anchor="start" x="215" y="-570.0163" font-family="Helvetica,sans-Serif" font-size="12.00" fill="#000000">DNSKEY</text>
<text text-anchor="start" x="207" y="-559.6163" font-family="Times,serif" font-size="10.00" fill="#000000">alg=8, id=39595</text>
<text text-anchor="start" x="221.5" y="-549.6163" font-family="Times,serif" font-size="10.00" fill="#000000">2048 bits</text>
</g>
<!-- DNSKEY&#45;2|jp|8|19311&#45;&gt;DNSKEY&#45;4|jp|8|39595 -->
<g id="RRSIG&#45;DNSKEY&#45;2|jp|8|19311|DNSKEY&#45;4|jp|8|39595|0a879a|solid" class="edge">
<title>DNSKEY&#45;2|jp|8|19311&#45;&gt;DNSKEY&#45;4|jp|8|39595</title>
<path fill="none" stroke="#0a879a" stroke-width="1.5" d="M216.2834,-520.4001C219.2149,-525.4071 222.1838,-530.478 224.9982,-535.285"/>
<polygon fill="#0a879a" stroke="#0a879a" stroke-width="1.5" points="219.1615,-518.3886 211.0886,-511.5272 213.1207,-521.9254 219.1615,-518.3886"/>
</g>
<!-- DNSKEY&#45;3|jp|8|40236 -->
<g id="DNSKEY&#45;3|jp|8|40236" class="node">
<title>DNSKEY&#45;3|jp|8|40236</title>
<ellipse fill="#ffffff" stroke="#0a879a" stroke-width="1.5" cx="332" cy="-484.0478" rx="59.2941" ry="28.0702"/>
<text text-anchor="start" x="306" y="-491.4478" font-family="Helvetica,sans-Serif" font-size="12.00" fill="#000000">DNSKEY</text>
<text text-anchor="start" x="298" y="-481.0478" font-family="Times,serif" font-size="10.00" fill="#000000">alg=8, id=40236</text>
<text text-anchor="start" x="312.5" y="-471.0478" font-family="Times,serif" font-size="10.00" fill="#000000">1024 bits</text>
</g>
<!-- DNSKEY&#45;3|jp|8|40236&#45;&gt;DNSKEY&#45;4|jp|8|39595 -->
<g id="RRSIG&#45;DNSKEY&#45;3|jp|8|40236|DNSKEY&#45;4|jp|8|39595|0a879a|solid" class="edge">
<title>DNSKEY&#45;3|jp|8|40236&#45;&gt;DNSKEY&#45;4|jp|8|39595</title>
<path fill="none" stroke="#0a879a" stroke-width="1.5" d="M295.5418,-515.5254C287.021,-522.8822 278.0592,-530.6197 269.918,-537.6488"/>
<polygon fill="#0a879a" stroke="#0a879a" stroke-width="1.5" points="297.9252,-518.0917 303.207,-508.9073 293.3505,-512.7933 297.9252,-518.0917"/>
</g>
<!-- DNSKEY&#45;4|jp|8|39595&#45;&gt;cluster_jp_top -->
<!-- DNSKEY&#45;4|jp|8|39595&#45;&gt;DNSKEY&#45;4|jp|8|39595 -->
<g id="RRSIG&#45;DNSKEY&#45;4|jp|8|39595|DNSKEY&#45;4|jp|8|39595|0a879a|solid" class="edge">
<title>DNSKEY&#45;4|jp|8|39595&#45;&gt;DNSKEY&#45;4|jp|8|39595</title>
<path fill="none" stroke="#0a879a" stroke-width="1.5" d="M306.9922,-554.5232C313.9406,-556.0981 318.397,-558.7958 318.397,-562.6163 318.397,-568.0499 309.3829,-571.2124 297.0062,-572.1039"/>
<polygon fill="#0a879a" stroke="#0a879a" stroke-width="1.5" points="307.3942,-551.0454 297.0062,-553.1287 306.426,-557.9782 307.3942,-551.0454"/>
</g>
<!-- DS&#45;0_1|jp|8|39595|1_2 -->
<g id="DS&#45;0_1|jp|8|39595|1_2" class="node">
<title>DS&#45;0_1|jp|8|39595|1_2</title>
<ellipse fill="#ffffff" stroke="#0a879a" stroke-width="1.5" cx="274" cy="-722.7138" rx="55.3091" ry="21.4286"/>
<text text-anchor="start" x="265" y="-725.1138" font-family="Helvetica,sans-Serif" font-size="12.00" fill="#000000">DS</text>
<text text-anchor="start" x="243" y="-714.7138" font-family="Times,serif" font-size="10.00" fill="#000000">digest algs=1,2</text>
</g>
<!-- DNSKEY&#45;4|jp|8|39595&#45;&gt;DS&#45;0_1|jp|8|39595|1_2 -->
<g id="digest&#45;DNSKEY&#45;4|jp|8|39595|DS&#45;0_1|jp|8|39595|1_2|0a879a|solid" class="edge">
<title>DNSKEY&#45;4|jp|8|39595&#45;&gt;DS&#45;0_1|jp|8|39595|1_2</title>
<path fill="none" stroke="#0a879a" stroke-width="1.5" d="M248.9198,-601.0386C255.4031,-632.4922 264.3352,-675.8257 269.6051,-701.392"/>
<polygon fill="#0a879a" stroke="#0a879a" stroke-width="1.5" points="252.2706,-599.9575 246.8238,-590.87 245.4147,-601.3707 252.2706,-599.9575"/>
</g>
<!-- DS&#45;2|ed25519.jp|15|96|2 -->
<g id="DS&#45;2|ed25519.jp|15|96|2" class="node">
<title>DS&#45;2|ed25519.jp|15|96|2</title>
<ellipse fill="#ffffff" stroke="#0a879a" stroke-width="1.5" cx="205" cy="-412.5503" rx="47.2526" ry="21.4286"/>
<text text-anchor="start" x="196" y="-414.9503" font-family="Helvetica,sans-Serif" font-size="12.00" fill="#000000">DS</text>
<text text-anchor="start" x="179.5" y="-404.5503" font-family="Times,serif" font-size="10.00" fill="#000000">digest alg=2</text>
</g>
<!-- DS&#45;2|ed25519.jp|15|96|2&#45;&gt;DNSKEY&#45;2|jp|8|19311 -->
<g id="RRSIG&#45;DS&#45;2|ed25519.jp|15|96|2|DNSKEY&#45;2|jp|8|19311|0a879a|solid" class="edge">
<title>DS&#45;2|ed25519.jp|15|96|2&#45;&gt;DNSKEY&#45;2|jp|8|19311</title>
<path fill="none" stroke="#0a879a" stroke-width="1.5" d="M200.598,-444.0235C200.0532,-447.919 199.4987,-451.8832 198.961,-455.7275"/>
<polygon fill="#0a879a" stroke="#0a879a" stroke-width="1.5" points="204.0807,-444.3903 201.9997,-434.0019 197.1482,-443.4207 204.0807,-444.3903"/>
</g>
<!-- cluster_._top -->
<!-- DNSKEY&#45;5|.|8|20326 -->
<g id="DNSKEY&#45;5|.|8|20326" class="node">
<title>DNSKEY&#45;5|.|8|20326</title>
<ellipse fill="#d3d3d3" stroke="#0a879a" stroke-width="1.5" cx="260" cy="-876.7798" rx="59.3006" ry="28.0965"/>
<ellipse fill="none" stroke="#0a879a" stroke-width="1.5" cx="260" cy="-876.7798" rx="63.2941" ry="32.07"/>
<text text-anchor="start" x="234" y="-884.1798" font-family="Helvetica,sans-Serif" font-size="12.00" fill="#000000">DNSKEY</text>
<text text-anchor="start" x="226" y="-873.7798" font-family="Times,serif" font-size="10.00" fill="#000000">alg=8, id=20326</text>
<text text-anchor="start" x="240.5" y="-863.7798" font-family="Times,serif" font-size="10.00" fill="#000000">2048 bits</text>
</g>
<!-- DNSKEY&#45;5|.|8|20326&#45;&gt;cluster_._top -->
<!-- DNSKEY&#45;5|.|8|20326&#45;&gt;DNSKEY&#45;5|.|8|20326 -->
<g id="RRSIG&#45;DNSKEY&#45;5|.|8|20326|DNSKEY&#45;5|.|8|20326|0a879a|solid" class="edge">
<title>DNSKEY&#45;5|.|8|20326&#45;&gt;DNSKEY&#45;5|.|8|20326</title>
<path fill="none" stroke="#0a879a" stroke-width="1.5" d="M330.6637,-868.3757C337.245,-870.1059 341.397,-872.9072 341.397,-876.7798 341.397,-882.4126 332.6126,-885.7791 320.3453,-886.8793"/>
<polygon fill="#0a879a" stroke="#0a879a" stroke-width="1.5" points="330.7805,-864.848 320.3453,-866.6803 329.6455,-871.7554 330.7805,-864.848"/>
</g>
<!-- DNSKEY&#45;6|.|8|22545 -->
<g id="DNSKEY&#45;6|.|8|22545" class="node">
<title>DNSKEY&#45;6|.|8|22545</title>
<ellipse fill="#ffffff" stroke="#0a879a" stroke-width="1.5" cx="267" cy="-794.2113" rx="59.2941" ry="28.0702"/>
<text text-anchor="start" x="241" y="-801.6113" font-family="Helvetica,sans-Serif" font-size="12.00" fill="#000000">DNSKEY</text>
<text text-anchor="start" x="233" y="-791.2113" font-family="Times,serif" font-size="10.00" fill="#000000">alg=8, id=22545</text>
<text text-anchor="start" x="247.5" y="-781.2113" font-family="Times,serif" font-size="10.00" fill="#000000">2048 bits</text>
</g>
<!-- DNSKEY&#45;6|.|8|22545&#45;&gt;DNSKEY&#45;5|.|8|20326 -->
<g id="RRSIG&#45;DNSKEY&#45;6|.|8|22545|DNSKEY&#45;5|.|8|20326|0a879a|solid" class="edge">
<title>DNSKEY&#45;6|.|8|22545&#45;&gt;DNSKEY&#45;5|.|8|20326</title>
<path fill="none" stroke="#0a879a" stroke-width="1.5" d="M263.7342,-832.7329C263.405,-836.6156 263.0731,-840.531 262.7501,-844.3409"/>
<polygon fill="#0a879a" stroke="#0a879a" stroke-width="1.5" points="267.2336,-832.8866 264.591,-822.6267 260.2587,-832.2952 267.2336,-832.8866"/>
</g>
<!-- DS&#45;0_1|jp|8|39595|1_2&#45;&gt;DNSKEY&#45;6|.|8|22545 -->
<g id="RRSIG&#45;DS&#45;0_1|jp|8|39595|1_2|DNSKEY&#45;6|.|8|22545|0a879a|solid" class="edge">
<title>DS&#45;0_1|jp|8|39595|1_2&#45;&gt;DNSKEY&#45;6|.|8|22545</title>
<path fill="none" stroke="#0a879a" stroke-width="1.5" d="M270.9186,-754.187C270.5372,-758.0825 270.1491,-762.0467 269.7727,-765.891"/>
<polygon fill="#0a879a" stroke="#0a879a" stroke-width="1.5" points="274.4086,-754.4589 271.8998,-744.1654 267.4419,-753.7767 274.4086,-754.4589"/>
</g>
<!-- cluster_ed25519.jp_top -->
<!-- cluster_ed25519.jp_top&#45;&gt;cluster_jp_bottom -->
<g id="del&#45;ed25519.jp|jp" class="edge">
<title>cluster_ed25519.jp_top&#45;&gt;cluster_jp_bottom</title>
<path fill="none" stroke="#0a879a" stroke-width="5" d="M155.0292,-316.036C152.9924,-322.2772 150.6086,-330.163 149,-337.3371"/>
<polygon fill="#0a879a" stroke="#0a879a" stroke-width="5" points="153.6293,-324.9046 156.3629,-314.3371 146.7466,-319.5015 153.6293,-324.9046"/>
</g>
<!-- cluster_ed25519.jp_bottom -->
<!-- RRset&#45;10|ed25519.jp|NS -->
<g id="RRset&#45;10|ed25519.jp|NS" class="node">
<title>RRset&#45;10|ed25519.jp|NS</title>
<path fill="#ffffff" stroke="#0a879a" stroke-width="1.5" d="M100.5,-123.6C100.5,-123.6 27.5,-123.6 27.5,-123.6 21.5,-123.6 15.5,-117.6 15.5,-111.6 15.5,-111.6 15.5,-99.6 15.5,-99.6 15.5,-93.6 21.5,-87.6 27.5,-87.6 27.5,-87.6 100.5,-87.6 100.5,-87.6 106.5,-87.6 112.5,-93.6 112.5,-99.6 112.5,-99.6 112.5,-111.6 112.5,-111.6 112.5,-117.6 106.5,-123.6 100.5,-123.6"/>
<text text-anchor="start" x="23.5" y="-102.5" font-family="Helvetica,sans-Serif" font-size="12.00" fill="#000000">ed25519.jp/NS</text>
</g>
<!-- cluster_ed25519.jp_bottom&#45;&gt;RRset&#45;10|ed25519.jp|NS -->
<!-- RRset&#45;11|ed25519.jp|A -->
<g id="RRset&#45;11|ed25519.jp|A" class="node">
<title>RRset&#45;11|ed25519.jp|A</title>
<path fill="#ffffff" stroke="#0a879a" stroke-width="1.5" d="M207,-123.6C207,-123.6 143,-123.6 143,-123.6 137,-123.6 131,-117.6 131,-111.6 131,-111.6 131,-99.6 131,-99.6 131,-93.6 137,-87.6 143,-87.6 143,-87.6 207,-87.6 207,-87.6 213,-87.6 219,-93.6 219,-99.6 219,-99.6 219,-111.6 219,-111.6 219,-117.6 213,-123.6 207,-123.6"/>
<text text-anchor="start" x="139" y="-102.5" font-family="Helvetica,sans-Serif" font-size="12.00" fill="#000000">ed25519.jp/A</text>
</g>
<!-- cluster_ed25519.jp_bottom&#45;&gt;RRset&#45;11|ed25519.jp|A -->
<!-- RRset&#45;12|ed25519.jp|SOA -->
<g id="RRset&#45;12|ed25519.jp|SOA" class="node">
<title>RRset&#45;12|ed25519.jp|SOA</title>
<path fill="#ffffff" stroke="#0a879a" stroke-width="1.5" d="M330.5,-123.6C330.5,-123.6 249.5,-123.6 249.5,-123.6 243.5,-123.6 237.5,-117.6 237.5,-111.6 237.5,-111.6 237.5,-99.6 237.5,-99.6 237.5,-93.6 243.5,-87.6 249.5,-87.6 249.5,-87.6 330.5,-87.6 330.5,-87.6 336.5,-87.6 342.5,-93.6 342.5,-99.6 342.5,-99.6 342.5,-111.6 342.5,-111.6 342.5,-117.6 336.5,-123.6 330.5,-123.6"/>
<text text-anchor="start" x="245.5" y="-102.5" font-family="Helvetica,sans-Serif" font-size="12.00" fill="#000000">ed25519.jp/SOA</text>
</g>
<!-- cluster_ed25519.jp_bottom&#45;&gt;RRset&#45;12|ed25519.jp|SOA -->
<!-- DNSKEY&#45;0|ed25519.jp|15|5854 -->
<g id="DNSKEY&#45;0|ed25519.jp|15|5854" class="node">
<title>DNSKEY&#45;0|ed25519.jp|15|5854</title>
<ellipse fill="#ffffff" stroke="#0a879a" stroke-width="1.5" cx="175" cy="-173.8843" rx="59.2941" ry="28.0702"/>
<text text-anchor="start" x="149" y="-181.2843" font-family="Helvetica,sans-Serif" font-size="12.00" fill="#000000">DNSKEY</text>
<text text-anchor="start" x="141" y="-170.8843" font-family="Times,serif" font-size="10.00" fill="#000000">alg=15, id=5854</text>
<text text-anchor="start" x="158" y="-160.8843" font-family="Times,serif" font-size="10.00" fill="#000000">256 bits</text>
</g>
<!-- DNSKEY&#45;1|ed25519.jp|15|96 -->
<g id="DNSKEY&#45;1|ed25519.jp|15|96" class="node">
<title>DNSKEY&#45;1|ed25519.jp|15|96</title>
<ellipse fill="#d3d3d3" stroke="#0a879a" stroke-width="1.5" cx="175" cy="-252.4528" rx="52.1524" ry="28.0702"/>
<text text-anchor="start" x="149" y="-259.8528" font-family="Helvetica,sans-Serif" font-size="12.00" fill="#000000">DNSKEY</text>
<text text-anchor="start" x="146" y="-249.4528" font-family="Times,serif" font-size="10.00" fill="#000000">alg=15, id=96</text>
<text text-anchor="start" x="158" y="-239.4528" font-family="Times,serif" font-size="10.00" fill="#000000">256 bits</text>
</g>
<!-- DNSKEY&#45;0|ed25519.jp|15|5854&#45;&gt;DNSKEY&#45;1|ed25519.jp|15|96 -->
<g id="RRSIG&#45;DNSKEY&#45;0|ed25519.jp|15|5854|DNSKEY&#45;1|ed25519.jp|15|96|0a879a|solid" class="edge">
<title>DNSKEY&#45;0|ed25519.jp|15|5854&#45;&gt;DNSKEY&#45;1|ed25519.jp|15|96</title>
<path fill="none" stroke="#0a879a" stroke-width="1.5" d="M175,-212.4983C175,-216.4185 175,-220.3476 175,-224.1294"/>
<polygon fill="#0a879a" stroke="#0a879a" stroke-width="1.5" points="178.5001,-212.2493 175,-202.2493 171.5001,-212.2494 178.5001,-212.2493"/>
</g>
<!-- DNSKEY&#45;1|ed25519.jp|15|96&#45;&gt;DS&#45;2|ed25519.jp|15|96|2 -->
<g id="digest&#45;DNSKEY&#45;1|ed25519.jp|15|96|DS&#45;2|ed25519.jp|15|96|2|0a879a|solid" class="edge">
<title>DNSKEY&#45;1|ed25519.jp|15|96&#45;&gt;DS&#45;2|ed25519.jp|15|96|2</title>
<path fill="none" stroke="#0a879a" stroke-width="1.5" d="M182.1998,-290.8751C188.0938,-322.3287 196.2138,-365.6622 201.0046,-391.2285"/>
<polygon fill="#0a879a" stroke="#0a879a" stroke-width="1.5" points="185.5763,-289.8908 180.2943,-280.7065 178.6961,-291.1801 185.5763,-289.8908"/>
</g>
<!-- DNSKEY&#45;1|ed25519.jp|15|96&#45;&gt;cluster_ed25519.jp_top -->
<!-- DNSKEY&#45;1|ed25519.jp|15|96&#45;&gt;DNSKEY&#45;1|ed25519.jp|15|96 -->
<g id="RRSIG&#45;DNSKEY&#45;1|ed25519.jp|15|96|DNSKEY&#45;1|ed25519.jp|15|96|0a879a|solid" class="edge">
<title>DNSKEY&#45;1|ed25519.jp|15|96&#45;&gt;DNSKEY&#45;1|ed25519.jp|15|96</title>
<path fill="none" stroke="#0a879a" stroke-width="1.5" d="M234.5149,-244.2507C241.0843,-245.8086 245.3259,-248.5427 245.3259,-252.4528 245.3259,-258.1403 236.352,-261.3395 224.2934,-262.0505"/>
<polygon fill="#0a879a" stroke="#0a879a" stroke-width="1.5" points="234.6749,-240.7401 224.2934,-242.8552 233.728,-247.6758 234.6749,-240.7401"/>
</g>
<!-- RRset&#45;10|ed25519.jp|NS&#45;&gt;DNSKEY&#45;0|ed25519.jp|15|5854 -->
<g id="RRSIG&#45;RRset&#45;10|ed25519.jp|NS|DNSKEY&#45;0|ed25519.jp|15|5854|0a879a|solid" class="edge">
<title>RRset&#45;10|ed25519.jp|NS&#45;&gt;DNSKEY&#45;0|ed25519.jp|15|5854</title>
<path fill="none" stroke="#0a879a" stroke-width="1.5" d="M102.1319,-129.0577C113.8222,-136.2493 126.6558,-144.1442 138.2518,-151.2777"/>
<polygon fill="#0a879a" stroke="#0a879a" stroke-width="1.5" points="103.8058,-125.9783 93.4545,-123.7197 100.138,-131.9405 103.8058,-125.9783"/>
</g>
<!-- RRset&#45;11|ed25519.jp|A&#45;&gt;DNSKEY&#45;0|ed25519.jp|15|5854 -->
<g id="RRSIG&#45;RRset&#45;11|ed25519.jp|A|DNSKEY&#45;0|ed25519.jp|15|5854|0a879a|solid" class="edge">
<title>RRset&#45;11|ed25519.jp|A&#45;&gt;DNSKEY&#45;0|ed25519.jp|15|5854</title>
<path fill="none" stroke="#0a879a" stroke-width="1.5" d="M175,-134.1077C175,-137.8746 175,-141.7355 175,-145.5003"/>
<polygon fill="#0a879a" stroke="#0a879a" stroke-width="1.5" points="178.5001,-133.8989 175,-123.8989 171.5001,-133.899 178.5001,-133.8989"/>
</g>
<!-- RRset&#45;12|ed25519.jp|SOA&#45;&gt;DNSKEY&#45;0|ed25519.jp|15|5854 -->
<g id="RRSIG&#45;RRset&#45;12|ed25519.jp|SOA|DNSKEY&#45;0|ed25519.jp|15|5854|0a879a|solid" class="edge">
<title>RRset&#45;12|ed25519.jp|SOA&#45;&gt;DNSKEY&#45;0|ed25519.jp|15|5854</title>
<path fill="none" stroke="#0a879a" stroke-width="1.5" d="M250.6837,-128.9451C238.2375,-136.3353 224.5244,-144.4779 212.2292,-151.7784"/>
<polygon fill="#0a879a" stroke="#0a879a" stroke-width="1.5" points="252.6725,-131.8347 259.484,-123.7197 249.0986,-125.8158 252.6725,-131.8347"/>
</g>
</g>
</svg>
