<?xml version="1.0" encoding="UTF-8" standalone="no"?>
<!DOCTYPE svg PUBLIC "-//W3C//DTD SVG 1.1//EN"
 "http://www.w3.org/Graphics/SVG/1.1/DTD/svg11.dtd">
<!-- Generated by graphviz version 2.40.1 (0)
 -->
<!-- Pages: 1 -->
<svg
 viewBox="0.00 0.00 367.00 958.66" xmlns="http://www.w3.org/2000/svg" xmlns:xlink="http://www.w3.org/1999/xlink">
<g id="graph0" class="graph" transform="scale(1 1) rotate(0) translate(4 954.6641)">
<polygon fill="#ffffff" stroke="transparent" points="-4,4 -4,-954.6641 363,-954.6641 363,4 -4,4"/>
<g id="cluster_jp_top" class="cluster">
<title>cluster_jp</title>
<polygon fill="none" stroke="#000000" stroke-width=".5" points="128,-337.3371 128,-624.5006 280,-624.5006 280,-337.3371 128,-337.3371"/>
<text text-anchor="start" x="140" y="-365.7371" font-family="Times,serif" font-size="12.00" fill="#000000">jp</text>
<text text-anchor="start" x="140" y="-348.3371" font-family="Times,serif" font-size="10.00" fill="#000000">(2019&#45;10&#45;15 09:00:02 JST)</text>
</g>
<g id="cluster_ed25519.jp_top" class="cluster">
<title>cluster_ed25519.jp</title>
<polygon fill="none" stroke="#000000" stroke-width=".5" points="8,-8 8,-314.3371 351,-314.3371 351,-8 8,-8"/>
<text text-anchor="start" x="20" y="-36.4" font-family="Times,serif" font-size="12.00" fill="#000000">ed25519.jp</text>
<text text-anchor="start" x="20" y="-19" font-family="Times,serif" font-size="10.00" fill="#000000">(2019&#45;10&#45;15 09:00:02 JST)</text>
</g>
<g id="cluster_._top" class="cluster">
<title>cluster_.</title>
<polygon fill="none" stroke="#000000" stroke-width=".5" points="143,-647.5006 143,-942.6641 303,-942.6641 303,-647.5006 143,-647.5006"/>
<text text-anchor="start" x="155" y="-675.9006" font-family="Times,serif" font-size="12.00" fill="#000000">.</text>
<text text-anchor="start" x="155" y="-658.5006" font-family="Times,serif" font-size="10.00" fill="#000000">(2019&#45;10&#45;15 09:00:02 JST)</text>
</g>
<!-- cluster_jp_top -->
<!-- cluster_._bottom -->
<!-- cluster_jp_top&#45;&gt;cluster_._bottom -->
<g id="del&#45;jp|." class="edge">
<title>cluster_jp_top&#45;&gt;cluster_._bottom</title>
<path fill="none" stroke="#0a879a" stroke-width="5" d="M173.1086,-625.5199C169.9463,-631.7738 166.2472,-639.8887 164,-647.5006"/>
<polygon fill="#0a879a" stroke="#0a879a" stroke-width="5" points="170.688,-634.9 174.0047,-624.5006 164.1161,-629.1227 170.688,-634.9"/>
</g>
<!-- cluster_jp_bottom -->
<!-- DNSKEY&#45;2|jp|8|19311 -->
<g id="DNSKEY&#45;2|jp|8|19311" class="node">
<title>DNSKEY&#45;2|jp|8|19311</title>
<ellipse fill="#ffffff" stroke="#0a879a" stroke-width="1.5" cx="200" cy="-484.0478" rx="59.2941" ry="28.0702"/>
<text text-anchor="start" x="174" y="-491.4478" font-family="Helvetica,sans-Serif" font-size="12.00" fill="#000000">DNSKEY</text>
<text text-anchor="start" x="166" y="-481.0478" font-family="Times,serif" font-size="10.00" fill="#000000">alg=8, id=19311</text>
<text text-anchor="start" x="180.5" y="-471.0478" font-family="Times,serif" font-size="10.00" fill="#000000">1024 bits</text>
</g>
<!-- DNSKEY&#45;3|jp|8|54004 -->
<g id="DNSKEY&#45;3|jp|8|54004" class="node">
<title>DNSKEY&#45;3|jp|8|54004</title>
<ellipse fill="#d3d3d3" stroke="#0a879a" stroke-width="1.5" cx="195" cy="-562.6163" rx="59.2941" ry="28.0702"/>
<text text-anchor="start" x="169" y="-570.0163" font-family="Helvetica,sans-Serif" font-size="12.00" fill="#000000">DNSKEY</text>
<text text-anchor="start" x="161" y="-559.6163" font-family="Times,serif" font-size="10.00" fill="#000000">alg=8, id=54004</text>
<text text-anchor="start" x="175.5" y="-549.6163" font-family="Times,serif" font-size="10.00" fill="#000000">2048 bits</text>
</g>
<!-- DNSKEY&#45;2|jp|8|19311&#45;&gt;DNSKEY&#45;3|jp|8|54004 -->
<g id="RRSIG&#45;DNSKEY&#45;2|jp|8|19311|DNSKEY&#45;3|jp|8|54004|0a879a|solid" class="edge">
<title>DNSKEY&#45;2|jp|8|19311&#45;&gt;DNSKEY&#45;3|jp|8|54004</title>
<path fill="none" stroke="#0a879a" stroke-width="1.5" d="M197.5427,-522.6618C197.2932,-526.582 197.0431,-530.5111 196.8025,-534.2929"/>
<polygon fill="#0a879a" stroke="#0a879a" stroke-width="1.5" points="201.0526,-522.6149 198.1949,-512.4128 194.0668,-522.1703 201.0526,-522.6149"/>
</g>
<!-- DNSKEY&#45;3|jp|8|54004&#45;&gt;cluster_jp_top -->
<!-- DNSKEY&#45;3|jp|8|54004&#45;&gt;DNSKEY&#45;3|jp|8|54004 -->
<g id="RRSIG&#45;DNSKEY&#45;3|jp|8|54004|DNSKEY&#45;3|jp|8|54004|0a879a|solid" class="edge">
<title>DNSKEY&#45;3|jp|8|54004&#45;&gt;DNSKEY&#45;3|jp|8|54004</title>
<path fill="none" stroke="#0a879a" stroke-width="1.5" d="M260.9922,-554.5232C267.9406,-556.0981 272.397,-558.7958 272.397,-562.6163 272.397,-568.0499 263.3829,-571.2124 251.0062,-572.1039"/>
<polygon fill="#0a879a" stroke="#0a879a" stroke-width="1.5" points="261.3942,-551.0454 251.0062,-553.1287 260.426,-557.9782 261.3942,-551.0454"/>
</g>
<!-- DS&#45;0_1|jp|8|54004|1_2 -->
<g id="DS&#45;0_1|jp|8|54004|1_2" class="node">
<title>DS&#45;0_1|jp|8|54004|1_2</title>
<ellipse fill="#ffffff" stroke="#0a879a" stroke-width="1.5" cx="228" cy="-722.7138" rx="55.3091" ry="21.4286"/>
<text text-anchor="start" x="219" y="-725.1138" font-family="Helvetica,sans-Serif" font-size="12.00" fill="#000000">DS</text>
<text text-anchor="start" x="197" y="-714.7138" font-family="Times,serif" font-size="10.00" fill="#000000">digest algs=1,2</text>
</g>
<!-- DNSKEY&#45;3|jp|8|54004&#45;&gt;DS&#45;0_1|jp|8|54004|1_2 -->
<g id="digest&#45;DNSKEY&#45;3|jp|8|54004|DS&#45;0_1|jp|8|54004|1_2|0a879a|solid" class="edge">
<title>DNSKEY&#45;3|jp|8|54004&#45;&gt;DS&#45;0_1|jp|8|54004|1_2</title>
<path fill="none" stroke="#0a879a" stroke-width="1.5" d="M202.9198,-601.0386C209.4031,-632.4922 218.3352,-675.8257 223.6051,-701.392"/>
<polygon fill="#0a879a" stroke="#0a879a" stroke-width="1.5" points="206.2706,-599.9575 200.8238,-590.87 199.4147,-601.3707 206.2706,-599.9575"/>
</g>
<!-- DS&#45;2|ed25519.jp|15|42872|2 -->
<g id="DS&#45;2|ed25519.jp|15|42872|2" class="node">
<title>DS&#45;2|ed25519.jp|15|42872|2</title>
<ellipse fill="#ffffff" stroke="#0a879a" stroke-width="1.5" cx="205" cy="-412.5503" rx="47.2526" ry="21.4286"/>
<text text-anchor="start" x="196" y="-414.9503" font-family="Helvetica,sans-Serif" font-size="12.00" fill="#000000">DS</text>
<text text-anchor="start" x="179.5" y="-404.5503" font-family="Times,serif" font-size="10.00" fill="#000000">digest alg=2</text>
</g>
<!-- DS&#45;2|ed25519.jp|15|42872|2&#45;&gt;DNSKEY&#45;2|jp|8|19311 -->
<g id="RRSIG&#45;DS&#45;2|ed25519.jp|15|42872|2|DNSKEY&#45;2|jp|8|19311|0a879a|solid" class="edge">
<title>DS&#45;2|ed25519.jp|15|42872|2&#45;&gt;DNSKEY&#45;2|jp|8|19311</title>
<path fill="none" stroke="#0a879a" stroke-width="1.5" d="M202.799,-444.0235C202.5266,-447.919 202.2494,-451.8832 201.9805,-455.7275"/>
<polygon fill="#0a879a" stroke="#0a879a" stroke-width="1.5" points="206.2936,-444.2217 203.4998,-434.0019 199.3106,-443.7333 206.2936,-444.2217"/>
</g>
<!-- cluster_ed25519.jp_top -->
<!-- cluster_ed25519.jp_top&#45;&gt;cluster_jp_bottom -->
<g id="del&#45;ed25519.jp|jp" class="edge">
<title>cluster_ed25519.jp_top&#45;&gt;cluster_jp_bottom</title>
<path fill="none" stroke="#0a879a" stroke-width="5" d="M155.0292,-316.036C152.9924,-322.2772 150.6086,-330.163 149,-337.3371"/>
<polygon fill="#0a879a" stroke="#0a879a" stroke-width="5" points="153.6293,-324.9046 156.3629,-314.3371 146.7466,-319.5015 153.6293,-324.9046"/>
</g>
<!-- cluster_ed25519.jp_bottom -->
<!-- RRset&#45;10|ed25519.jp|NS -->
<g id="RRset&#45;10|ed25519.jp|NS" class="node">
<title>RRset&#45;10|ed25519.jp|NS</title>
<path fill="#ffffff" stroke="#0a879a" stroke-width="1.5" d="M100.5,-123.6C100.5,-123.6 27.5,-123.6 27.5,-123.6 21.5,-123.6 15.5,-117.6 15.5,-111.6 15.5,-111.6 15.5,-99.6 15.5,-99.6 15.5,-93.6 21.5,-87.6 27.5,-87.6 27.5,-87.6 100.5,-87.6 100.5,-87.6 106.5,-87.6 112.5,-93.6 112.5,-99.6 112.5,-99.6 112.5,-111.6 112.5,-111.6 112.5,-117.6 106.5,-123.6 100.5,-123.6"/>
<text text-anchor="start" x="23.5" y="-102.5" font-family="Helvetica,sans-Serif" font-size="12.00" fill="#000000">ed25519.jp/NS</text>
</g>
<!-- cluster_ed25519.jp_bottom&#45;&gt;RRset&#45;10|ed25519.jp|NS -->
<!-- RRset&#45;11|ed25519.jp|A -->
<g id="RRset&#45;11|ed25519.jp|A" class="node">
<title>RRset&#45;11|ed25519.jp|A</title>
<path fill="#ffffff" stroke="#0a879a" stroke-width="1.5" d="M207,-123.6C207,-123.6 143,-123.6 143,-123.6 137,-123.6 131,-117.6 131,-111.6 131,-111.6 131,-99.6 131,-99.6 131,-93.6 137,-87.6 143,-87.6 143,-87.6 207,-87.6 207,-87.6 213,-87.6 219,-93.6 219,-99.6 219,-99.6 219,-111.6 219,-111.6 219,-117.6 213,-123.6 207,-123.6"/>
<text text-anchor="start" x="139" y="-102.5" font-family="Helvetica,sans-Serif" font-size="12.00" fill="#000000">ed25519.jp/A</text>
</g>
<!-- cluster_ed25519.jp_bottom&#45;&gt;RRset&#45;11|ed25519.jp|A -->
<!-- RRset&#45;12|ed25519.jp|SOA -->
<g id="RRset&#45;12|ed25519.jp|SOA" class="node">
<title>RRset&#45;12|ed25519.jp|SOA</title>
<path fill="#ffffff" stroke="#0a879a" stroke-width="1.5" d="M330.5,-123.6C330.5,-123.6 249.5,-123.6 249.5,-123.6 243.5,-123.6 237.5,-117.6 237.5,-111.6 237.5,-111.6 237.5,-99.6 237.5,-99.6 237.5,-93.6 243.5,-87.6 249.5,-87.6 249.5,-87.6 330.5,-87.6 330.5,-87.6 336.5,-87.6 342.5,-93.6 342.5,-99.6 342.5,-99.6 342.5,-111.6 342.5,-111.6 342.5,-117.6 336.5,-123.6 330.5,-123.6"/>
<text text-anchor="start" x="245.5" y="-102.5" font-family="Helvetica,sans-Serif" font-size="12.00" fill="#000000">ed25519.jp/SOA</text>
</g>
<!-- cluster_ed25519.jp_bottom&#45;&gt;RRset&#45;12|ed25519.jp|SOA -->
<!-- DNSKEY&#45;0|ed25519.jp|15|5854 -->
<g id="DNSKEY&#45;0|ed25519.jp|15|5854" class="node">
<title>DNSKEY&#45;0|ed25519.jp|15|5854</title>
<ellipse fill="#ffffff" stroke="#0a879a" stroke-width="1.5" cx="175" cy="-173.8843" rx="59.2941" ry="28.0702"/>
<text text-anchor="start" x="149" y="-181.2843" font-family="Helvetica,sans-Serif" font-size="12.00" fill="#000000">DNSKEY</text>
<text text-anchor="start" x="141" y="-170.8843" font-family="Times,serif" font-size="10.00" fill="#000000">alg=15, id=5854</text>
<text text-anchor="start" x="158" y="-160.8843" font-family="Times,serif" font-size="10.00" fill="#000000">256 bits</text>
</g>
<!-- DNSKEY&#45;1|ed25519.jp|15|42872 -->
<g id="DNSKEY&#45;1|ed25519.jp|15|42872" class="node">
<title>DNSKEY&#45;1|ed25519.jp|15|42872</title>
<ellipse fill="#d3d3d3" stroke="#0a879a" stroke-width="1.5" cx="175" cy="-252.4528" rx="62.8651" ry="28.0702"/>
<text text-anchor="start" x="149" y="-259.8528" font-family="Helvetica,sans-Serif" font-size="12.00" fill="#000000">DNSKEY</text>
<text text-anchor="start" x="138.5" y="-249.4528" font-family="Times,serif" font-size="10.00" fill="#000000">alg=15, id=42872</text>
<text text-anchor="start" x="158" y="-239.4528" font-family="Times,serif" font-size="10.00" fill="#000000">256 bits</text>
</g>
<!-- DNSKEY&#45;0|ed25519.jp|15|5854&#45;&gt;DNSKEY&#45;1|ed25519.jp|15|42872 -->
<g id="RRSIG&#45;DNSKEY&#45;0|ed25519.jp|15|5854|DNSKEY&#45;1|ed25519.jp|15|42872|0a879a|solid" class="edge">
<title>DNSKEY&#45;0|ed25519.jp|15|5854&#45;&gt;DNSKEY&#45;1|ed25519.jp|15|42872</title>
<path fill="none" stroke="#0a879a" stroke-width="1.5" d="M175,-212.4983C175,-216.4185 175,-220.3476 175,-224.1294"/>
<polygon fill="#0a879a" stroke="#0a879a" stroke-width="1.5" points="178.5001,-212.2493 175,-202.2493 171.5001,-212.2494 178.5001,-212.2493"/>
</g>
<!-- DNSKEY&#45;1|ed25519.jp|15|42872&#45;&gt;DS&#45;2|ed25519.jp|15|42872|2 -->
<g id="digest&#45;DNSKEY&#45;1|ed25519.jp|15|42872|DS&#45;2|ed25519.jp|15|42872|2|0a879a|solid" class="edge">
<title>DNSKEY&#45;1|ed25519.jp|15|42872&#45;&gt;DS&#45;2|ed25519.jp|15|42872|2</title>
<path fill="none" stroke="#0a879a" stroke-width="1.5" d="M182.1998,-290.8751C188.0938,-322.3287 196.2138,-365.6622 201.0046,-391.2285"/>
<polygon fill="#0a879a" stroke="#0a879a" stroke-width="1.5" points="185.5763,-289.8908 180.2943,-280.7065 178.6961,-291.1801 185.5763,-289.8908"/>
</g>
<!-- DNSKEY&#45;1|ed25519.jp|15|42872&#45;&gt;cluster_ed25519.jp_top -->
<!-- DNSKEY&#45;1|ed25519.jp|15|42872&#45;&gt;DNSKEY&#45;1|ed25519.jp|15|42872 -->
<g id="RRSIG&#45;DNSKEY&#45;1|ed25519.jp|15|42872|DNSKEY&#45;1|ed25519.jp|15|42872|0a879a|solid" class="edge">
<title>DNSKEY&#45;1|ed25519.jp|15|42872&#45;&gt;DNSKEY&#45;1|ed25519.jp|15|42872</title>
<path fill="none" stroke="#0a879a" stroke-width="1.5" d="M244.6117,-244.4948C251.5302,-246.0868 255.9325,-248.7394 255.9325,-252.4528 255.9325,-257.7341 247.0278,-260.8698 234.6447,-261.86"/>
<polygon fill="#0a879a" stroke="#0a879a" stroke-width="1.5" points="245.0443,-241.021 234.6447,-243.0456 244.0371,-247.9481 245.0443,-241.021"/>
</g>
<!-- RRset&#45;10|ed25519.jp|NS&#45;&gt;DNSKEY&#45;0|ed25519.jp|15|5854 -->
<g id="RRSIG&#45;RRset&#45;10|ed25519.jp|NS|DNSKEY&#45;0|ed25519.jp|15|5854|0a879a|solid" class="edge">
<title>RRset&#45;10|ed25519.jp|NS&#45;&gt;DNSKEY&#45;0|ed25519.jp|15|5854</title>
<path fill="none" stroke="#0a879a" stroke-width="1.5" d="M102.1319,-129.0577C113.8222,-136.2493 126.6558,-144.1442 138.2518,-151.2777"/>
<polygon fill="#0a879a" stroke="#0a879a" stroke-width="1.5" points="103.8058,-125.9783 93.4545,-123.7197 100.138,-131.9405 103.8058,-125.9783"/>
</g>
<!-- RRset&#45;11|ed25519.jp|A&#45;&gt;DNSKEY&#45;0|ed25519.jp|15|5854 -->
<g id="RRSIG&#45;RRset&#45;11|ed25519.jp|A|DNSKEY&#45;0|ed25519.jp|15|5854|0a879a|solid" class="edge">
<title>RRset&#45;11|ed25519.jp|A&#45;&gt;DNSKEY&#45;0|ed25519.jp|15|5854</title>
<path fill="none" stroke="#0a879a" stroke-width="1.5" d="M175,-134.1077C175,-137.8746 175,-141.7355 175,-145.5003"/>
<polygon fill="#0a879a" stroke="#0a879a" stroke-width="1.5" points="178.5001,-133.8989 175,-123.8989 171.5001,-133.899 178.5001,-133.8989"/>
</g>
<!-- RRset&#45;12|ed25519.jp|SOA&#45;&gt;DNSKEY&#45;0|ed25519.jp|15|5854 -->
<g id="RRSIG&#45;RRset&#45;12|ed25519.jp|SOA|DNSKEY&#45;0|ed25519.jp|15|5854|0a879a|solid" class="edge">
<title>RRset&#45;12|ed25519.jp|SOA&#45;&gt;DNSKEY&#45;0|ed25519.jp|15|5854</title>
<path fill="none" stroke="#0a879a" stroke-width="1.5" d="M250.6837,-128.9451C238.2375,-136.3353 224.5244,-144.4779 212.2292,-151.7784"/>
<polygon fill="#0a879a" stroke="#0a879a" stroke-width="1.5" points="252.6725,-131.8347 259.484,-123.7197 249.0986,-125.8158 252.6725,-131.8347"/>
</g>
<!-- cluster_._top -->
<!-- DNSKEY&#45;4|.|8|20326 -->
<g id="DNSKEY&#45;4|.|8|20326" class="node">
<title>DNSKEY&#45;4|.|8|20326</title>
<ellipse fill="#d3d3d3" stroke="#0a879a" stroke-width="1.5" cx="214" cy="-876.7798" rx="59.3006" ry="28.0965"/>
<ellipse fill="none" stroke="#0a879a" stroke-width="1.5" cx="214" cy="-876.7798" rx="63.2941" ry="32.07"/>
<text text-anchor="start" x="188" y="-884.1798" font-family="Helvetica,sans-Serif" font-size="12.00" fill="#000000">DNSKEY</text>
<text text-anchor="start" x="180" y="-873.7798" font-family="Times,serif" font-size="10.00" fill="#000000">alg=8, id=20326</text>
<text text-anchor="start" x="194.5" y="-863.7798" font-family="Times,serif" font-size="10.00" fill="#000000">2048 bits</text>
</g>
<!-- DNSKEY&#45;4|.|8|20326&#45;&gt;cluster_._top -->
<!-- DNSKEY&#45;4|.|8|20326&#45;&gt;DNSKEY&#45;4|.|8|20326 -->
<g id="RRSIG&#45;DNSKEY&#45;4|.|8|20326|DNSKEY&#45;4|.|8|20326|0a879a|solid" class="edge">
<title>DNSKEY&#45;4|.|8|20326&#45;&gt;DNSKEY&#45;4|.|8|20326</title>
<path fill="none" stroke="#0a879a" stroke-width="1.5" d="M284.6637,-868.3757C291.245,-870.1059 295.397,-872.9072 295.397,-876.7798 295.397,-882.4126 286.6126,-885.7791 274.3453,-886.8793"/>
<polygon fill="#0a879a" stroke="#0a879a" stroke-width="1.5" points="284.7805,-864.848 274.3453,-866.6803 283.6455,-871.7554 284.7805,-864.848"/>
</g>
<!-- DNSKEY&#45;5|.|8|22545 -->
<g id="DNSKEY&#45;5|.|8|22545" class="node">
<title>DNSKEY&#45;5|.|8|22545</title>
<ellipse fill="#ffffff" stroke="#0a879a" stroke-width="1.5" cx="221" cy="-794.2113" rx="59.2941" ry="28.0702"/>
<text text-anchor="start" x="195" y="-801.6113" font-family="Helvetica,sans-Serif" font-size="12.00" fill="#000000">DNSKEY</text>
<text text-anchor="start" x="187" y="-791.2113" font-family="Times,serif" font-size="10.00" fill="#000000">alg=8, id=22545</text>
<text text-anchor="start" x="201.5" y="-781.2113" font-family="Times,serif" font-size="10.00" fill="#000000">2048 bits</text>
</g>
<!-- DNSKEY&#45;5|.|8|22545&#45;&gt;DNSKEY&#45;4|.|8|20326 -->
<g id="RRSIG&#45;DNSKEY&#45;5|.|8|22545|DNSKEY&#45;4|.|8|20326|0a879a|solid" class="edge">
<title>DNSKEY&#45;5|.|8|22545&#45;&gt;DNSKEY&#45;4|.|8|20326</title>
<path fill="none" stroke="#0a879a" stroke-width="1.5" d="M217.7342,-832.7329C217.405,-836.6156 217.0731,-840.531 216.7501,-844.3409"/>
<polygon fill="#0a879a" stroke="#0a879a" stroke-width="1.5" points="221.2336,-832.8866 218.591,-822.6267 214.2587,-832.2952 221.2336,-832.8866"/>
</g>
<!-- DS&#45;0_1|jp|8|54004|1_2&#45;&gt;DNSKEY&#45;5|.|8|22545 -->
<g id="RRSIG&#45;DS&#45;0_1|jp|8|54004|1_2|DNSKEY&#45;5|.|8|22545|0a879a|solid" class="edge">
<title>DS&#45;0_1|jp|8|54004|1_2&#45;&gt;DNSKEY&#45;5|.|8|22545</title>
<path fill="none" stroke="#0a879a" stroke-width="1.5" d="M224.9186,-754.187C224.5372,-758.0825 224.1491,-762.0467 223.7727,-765.891"/>
<polygon fill="#0a879a" stroke="#0a879a" stroke-width="1.5" points="228.4086,-754.4589 225.8998,-744.1654 221.4419,-753.7767 228.4086,-754.4589"/>
</g>
</g>
</svg>
